<?xml version="1.0" encoding="utf-8"?>
<!-- Generator: Adobe Illustrator 19.0.1, SVG Export Plug-In . SVG Version: 6.00 Build 0)  -->
<svg version="1.1" id="Plus" xmlns="http://www.w3.org/2000/svg" xmlns:xlink="http://www.w3.org/1999/xlink" x="0px" y="0px"
	 width="10px" height="10px" viewBox="-585 779 10 10" style="enable-background:new -585 779 10 10;" xml:space="preserve">
<path d="M-575.8,779.8c0.4,0.4,0.7,0.7,0.3,1.1l-3.1,3.1l3.1,3.1c0.4,0.4,0.1,0.7-0.3,1.1s-0.7,0.7-1.1,0.3l-3.1-3.1l-3.1,3.1
	c-0.4,0.4-0.7,0.1-1.1-0.3s-0.7-0.7-0.3-1.1l3.1-3.1l-3.1-3.1c-0.4-0.4-0.1-0.7,0.3-1.1s0.7-0.7,1.1-0.3l3.1,3.1l3.1-3.1
	C-576.5,779.1-576.1,779.4-575.8,779.8z"/>
</svg>
